<svg xmlns="http://www.w3.org/2000/svg" viewBox="0 0 100 100" width="100" height="100">
  <defs>
    <linearGradient id="grad1" x1="0%" y1="0%" x2="100%" y2="100%">
      <stop offset="0%" style="stop-color:#2563eb;stop-opacity:1" />
      <stop offset="100%" style="stop-color:#0ea5e9;stop-opacity:1" />
    </linearGradient>
  </defs>
  
  <!-- Background circle -->
  <circle cx="50" cy="50" r="48" fill="url(#grad1)" opacity="0.1"/>
  
  <!-- Main brain/heart shape representing mental wellness -->
  <path d="M 50 20 Q 30 25 25 40 Q 20 55 30 65 Q 35 70 40 75 Q 45 80 50 85 Q 55 80 60 75 Q 65 70 70 65 Q 80 55 75 40 Q 70 25 50 20 Z" 
        fill="url(#grad1)" 
        stroke="#2563eb" 
        stroke-width="2"/>
  
  <!-- Inner detail lines -->
  <path d="M 50 30 Q 40 35 35 45 Q 30 55 35 60 Q 40 65 45 70" 
        fill="none" 
        stroke="#ffffff" 
        stroke-width="1.5" 
        opacity="0.6"/>
  <path d="M 50 30 Q 60 35 65 45 Q 70 55 65 60 Q 60 65 55 70" 
        fill="none" 
        stroke="#ffffff" 
        stroke-width="1.5" 
        opacity="0.6"/>
  
  <!-- Small accent dots -->
  <circle cx="40" cy="50" r="2" fill="#ffffff" opacity="0.8"/>
  <circle cx="60" cy="50" r="2" fill="#ffffff" opacity="0.8"/>
  <circle cx="50" cy="60" r="2" fill="#ffffff" opacity="0.8"/>
</svg>

