<svg xmlns="http://www.w3.org/2000/svg" viewBox="0 0 200 60" width="200" height="60">
  <defs>
    <linearGradient id="logoGrad" x1="0%" y1="0%" x2="100%" y2="0%">
      <stop offset="0%" style="stop-color:#2563eb;stop-opacity:1" />
      <stop offset="100%" style="stop-color:#0ea5e9;stop-opacity:1" />
    </linearGradient>
  </defs>
  
  <!-- Icon part -->
  <g transform="translate(5, 10)">
    <circle cx="20" cy="20" r="18" fill="url(#logoGrad)" opacity="0.1"/>
    <path d="M 20 5 Q 5 8 2 20 Q 0 32 5 35 Q 8 38 12 42 Q 16 46 20 50 Q 24 46 28 42 Q 32 38 35 35 Q 40 32 38 20 Q 35 8 20 5 Z" 
          fill="url(#logoGrad)" 
          stroke="#2563eb" 
          stroke-width="1.5"/>
    <path d="M 20 12 Q 12 14 10 20 Q 8 26 10 28 Q 12 30 15 32" 
          fill="none" 
          stroke="#ffffff" 
          stroke-width="1" 
          opacity="0.6"/>
    <path d="M 20 12 Q 28 14 30 20 Q 32 26 30 28 Q 28 30 25 32" 
          fill="none" 
          stroke="#ffffff" 
          stroke-width="1" 
          opacity="0.6"/>
    <circle cx="15" cy="20" r="1.5" fill="#ffffff" opacity="0.8"/>
    <circle cx="25" cy="20" r="1.5" fill="#ffffff" opacity="0.8"/>
    <circle cx="20" cy="26" r="1.5" fill="#ffffff" opacity="0.8"/>
  </g>
  
  <!-- Text part -->
  <text x="50" y="35" font-family="Poppins, sans-serif" font-size="28" font-weight="700" fill="url(#logoGrad)">Calmora</text>
</svg>

